<svg width="113" height="38" viewBox="0 0 113 38" fill="none" xmlns="http://www.w3.org/2000/svg">
<g filter="url(#filter0_dd_62_85)">
<g clip-path="url(#clip0_62_85)">
<rect x="3" y="2" width="32" height="32" rx="8" fill="white"/>
<rect x="3" y="2" width="32" height="32" rx="8" fill="url(#paint0_linear_62_85)"/>
<path fill-rule="evenodd" clip-rule="evenodd" d="M19 4.03882C11.2895 4.03882 5.03885 10.2894 5.03885 18C5.03885 25.7105 11.2895 31.9612 19 31.9612C26.7106 31.9612 32.9612 25.7105 32.9612 18C32.9612 10.2894 26.7106 4.03882 19 4.03882ZM4.96118 18C4.96118 10.2466 11.2466 3.96115 19 3.96115C26.7535 3.96115 33.0389 10.2466 33.0389 18C33.0389 25.7534 26.7535 32.0388 19 32.0388C11.2466 32.0388 4.96118 25.7534 4.96118 18Z" fill="#D0D5DD"/>
<path fill-rule="evenodd" clip-rule="evenodd" d="M19 14.0779C16.8338 14.0779 15.0777 15.834 15.0777 18.0002C15.0777 20.1665 16.8338 21.9225 19 21.9225C21.1662 21.9225 22.9223 20.1665 22.9223 18.0002C22.9223 15.834 21.1662 14.0779 19 14.0779ZM15 18.0002C15 15.7911 16.7909 14.0002 19 14.0002C21.2091 14.0002 23 15.7911 23 18.0002C23 20.2094 21.2091 22.0002 19 22.0002C16.7909 22.0002 15 20.2094 15 18.0002Z" fill="#D0D5DD"/>
<path fill-rule="evenodd" clip-rule="evenodd" d="M19 15.3201C17.52 15.3201 16.3203 16.5198 16.3203 17.9997C16.3203 19.4796 17.52 20.6793 19 20.6793C20.4799 20.6793 21.6796 19.4796 21.6796 17.9997C21.6796 16.5198 20.4799 15.3201 19 15.3201ZM16.2427 17.9997C16.2427 16.4769 17.4772 15.2424 19 15.2424C20.5228 15.2424 21.7572 16.4769 21.7572 17.9997C21.7572 19.5225 20.5228 20.757 19 20.757C17.4772 20.757 16.2427 19.5225 16.2427 17.9997Z" fill="#D0D5DD"/>
<path d="M18.9612 2H19.0389V34H18.9612V2Z" fill="#D0D5DD"/>
<path d="M35 17.9609L35 18.0386L3 18.0386L3 17.9609L35 17.9609Z" fill="#D0D5DD"/>
<path d="M29.6019 2H29.6796V34H29.6019V2Z" fill="#D0D5DD"/>
<path d="M13.6407 2H13.7184V34H13.6407V2Z" fill="#D0D5DD"/>
<path d="M24.2815 2H24.3592V34H24.2815V2Z" fill="#D0D5DD"/>
<path d="M8.32031 2H8.39798V34H8.32031V2Z" fill="#D0D5DD"/>
<path d="M35 28.6016L35 28.6792L3 28.6792L3 28.6016L35 28.6016Z" fill="#D0D5DD"/>
<path d="M35 12.6406L35 12.7183L3 12.7183L3 12.6406L35 12.6406Z" fill="#D0D5DD"/>
<path d="M35 23.2812L35 23.3589L3 23.3589L3 23.2812L35 23.2812Z" fill="#D0D5DD"/>
<path d="M35 7.32031L35 7.39798L3 7.39798L3 7.32031L35 7.32031Z" fill="#D0D5DD"/>
<path d="M26.0024 6.89601C26.0024 6.56932 23.1587 5.52001 21.5685 5.25986C19.3436 4.89554 19.2999 4.89674 16.9894 5.37548C11.7735 6.45671 8.16276 10.1572 7.15558 15.454C6.73171 17.6846 7.19129 20.5513 8.32282 22.736C8.74084 23.5427 9.11515 24.203 9.15455 24.203C9.19395 24.2033 9.17948 23.4692 9.12223 22.5716C8.89137 18.9455 10.4692 15.0385 13.1768 12.534C15.2478 10.6179 16.6084 9.9452 20.3176 9.00247C23.2668 8.25275 26.0024 7.23926 26.0024 6.89601Z" fill="#18CF4C"/>
<path d="M26.1661 17.0158C27.6036 14.8913 28.1953 12.8457 28.3839 9.35054L28.5603 6.07553L26.9206 7.28954C25.1205 8.62219 24.1767 9.01 19.8897 10.1795C15.2884 11.4347 13.0783 13.1624 11.285 16.9056C10.556 18.4268 10.4588 18.9913 10.4689 21.6434C10.4779 24.0819 10.6075 24.9262 11.1504 26.0845C11.5192 26.871 11.9461 27.5147 12.0991 27.5147C12.2521 27.5147 12.4525 26.9664 12.5442 26.2962C12.7606 24.719 14.538 21.071 16.0934 19.0115C17.4142 17.2624 19.834 15.019 21.897 13.6306C23.8719 12.3013 23.8547 12.581 21.8373 14.5968L19.9999 16.4326L21.3081 16.2263C22.9119 15.9734 23.0227 16.4106 21.4922 16.952C19.0127 17.8291 15.8213 21.6729 14.6448 25.1993C13.8586 27.5563 13.4892 30.6702 13.9624 30.9559C14.1686 31.0809 14.3053 30.9345 14.3053 30.5883C14.3053 30.2721 14.4573 29.5865 14.6433 29.065C14.9188 28.2921 15.1481 28.1169 15.8841 28.1169C17.0732 28.1169 20.3462 27.0269 21.5267 26.2381C22.6785 25.4682 24.4633 23.8546 24.4633 23.5833C24.4633 23.4731 24.0825 23.452 23.6168 23.5366C22.8814 23.6703 22.9802 23.5273 24.37 22.4467C25.7244 21.3937 27.5414 19.0636 27.5414 18.3801C27.5414 18.2705 27.0548 18.1808 26.4598 18.1808H25.3781L26.1661 17.0158Z" fill="#18CF4C"/>
<path d="M22.4517 28.8597C30.2949 26.8613 34.1845 18.7878 30.7375 11.6605C29.8633 9.85307 29.3884 9.60767 29.3884 10.9641C29.3884 12.0237 28.3138 15.3008 27.6729 16.1959C27.0548 17.0592 27.1213 17.2775 28.0032 17.2775C28.4264 17.2775 28.7696 17.447 28.7659 17.6538C28.7533 18.3626 27.6227 20.4781 26.7039 21.5124C26.1984 22.0811 25.8398 22.699 25.9063 22.8851C25.9731 23.0711 25.3199 23.9811 24.455 24.9069C22.8561 26.618 19.2461 28.714 17.8809 28.7236C17.3474 28.7275 17.3133 28.7811 17.6913 29.0202C18.3734 29.4513 20.397 29.3833 22.4517 28.8597Z" fill="#18CF4C"/>
</g>
</g>
<path d="M74.545 10.4902H82.6972V19.9561H85.6961V10.4902H93.8374V8.08801H74.545V10.4902Z" fill="#18CF4C"/>
<path fill-rule="evenodd" clip-rule="evenodd" d="M47.9556 20H45V13.1117H47.9556H59.0309V15.2177H47.9556V20ZM47.9556 10.4902L45 10.4404V8.13189H60.0053V10.4902H47.9556Z" fill="#18CF4C"/>
<path fill-rule="evenodd" clip-rule="evenodd" d="M60.6007 20H57.3528L66.815 8.14286H70.2578L79.7416 20H76.353L74.344 17.3346H62.6057L64.1817 15.2396H72.7649L69.5324 10.9508C69.3159 10.5925 69.1318 10.3147 68.9803 10.1172C68.8287 9.91978 68.6663 9.70772 68.4931 9.48104H68.4281C68.2621 9.71503 68.1033 9.93075 67.9518 10.1282C67.8002 10.3183 67.6161 10.5962 67.3996 10.9618L64.1817 15.2396H62.4736L61.142 17.3346H62.6057L60.6007 20Z" fill="#18CF4C"/>
<path d="M62.4736 15.2396L61.142 17.3346H62.6057L64.1817 15.2396H62.4736Z" fill="#18CF4C"/>
<path fill-rule="evenodd" clip-rule="evenodd" d="M93.8591 20H90.6112L100.073 8.14285H103.516L113 20H109.611L107.602 17.3346H95.8641L97.4401 15.2396H106.023L102.791 10.9508C102.574 10.5925 102.39 10.3147 102.239 10.1172C102.087 9.91978 101.925 9.70772 101.751 9.48103H101.687C101.521 9.71503 101.362 9.93075 101.21 10.1282C101.059 10.3183 100.875 10.5962 100.658 10.9618L97.4401 15.2396H95.7321L94.4004 17.3346H95.8641L93.8591 20Z" fill="#18CF4C"/>
<path fill-rule="evenodd" clip-rule="evenodd" d="M108.358 5.75548H105.119V4.39918H108.358V5.75548ZM109.687 5.75548H108.358V8.13186H109.687V5.75548ZM109.687 4.39918H108.358V2H109.687V4.39918ZM109.687 4.39918V5.75548H112.926V4.39918H109.687Z" fill="#18CF4C"/>
<path d="M108.358 4.39918V5.75548H109.687V4.39918H108.358Z" fill="#18CF4C"/>
<path d="M95.7321 15.2396L94.4004 17.3346H95.8641L97.4401 15.2396H95.7321Z" fill="#18CF4C"/>
<path d="M86.5229 29.5189C86.5229 29.1612 86.5994 28.835 86.7525 28.5404C86.9056 28.2458 87.1352 27.9933 87.4414 27.7828C87.7475 27.5682 88.1281 27.404 88.5832 27.2904C89.0424 27.1726 89.5761 27.1136 90.1843 27.1136C90.6353 27.1136 91.109 27.1473 91.6054 27.2146C92.106 27.282 92.6211 27.3851 93.1507 27.524C93.13 27.2883 93.0597 27.0715 92.9397 26.8737C92.8197 26.6717 92.6521 26.4992 92.437 26.3561C92.226 26.2088 91.9695 26.0951 91.6675 26.0152C91.3696 25.9352 91.0304 25.8952 90.6497 25.8952C90.4429 25.8952 90.2153 25.9078 89.9671 25.9331C89.7189 25.9583 89.4624 25.9962 89.1976 26.0467C88.9328 26.0972 88.6701 26.1604 88.4095 26.2361C88.153 26.3119 87.913 26.4024 87.6896 26.5076L87.1311 24.9735C87.4083 24.8725 87.7041 24.7799 88.0185 24.6957C88.3371 24.6115 88.6618 24.54 88.9928 24.4811C89.3238 24.4179 89.6548 24.3695 89.9857 24.3359C90.3167 24.3022 90.6373 24.2854 90.9476 24.2854C92.317 24.2854 93.3348 24.641 94.0009 25.3523C94.667 26.0636 95 27.1536 95 28.6225V31.8674H93.1631V31.1667C92.9728 31.2803 92.7638 31.3876 92.5363 31.4886C92.3129 31.5896 92.0688 31.678 91.804 31.7538C91.5392 31.8295 91.2538 31.8885 90.9476 31.9306C90.6456 31.9769 90.325 32 89.9857 32C89.4148 32 88.9121 31.9369 88.4777 31.8106C88.0475 31.6843 87.6875 31.5097 87.3979 31.2866C87.1083 31.0636 86.889 30.8026 86.7401 30.5038C86.5953 30.2008 86.5229 29.8725 86.5229 29.5189ZM88.4591 29.4558C88.4591 29.5779 88.4901 29.6957 88.5522 29.8093C88.6142 29.9188 88.7135 30.0177 88.8501 30.1061C88.9866 30.1902 89.1604 30.2597 89.3714 30.3144C89.5865 30.3649 89.8451 30.3902 90.1471 30.3902C90.4698 30.3902 90.7821 30.3607 91.0841 30.3018C91.3862 30.2428 91.6675 30.165 91.9281 30.0682C92.1888 29.9714 92.4246 29.8598 92.6356 29.7336C92.8466 29.6073 93.0224 29.4769 93.1631 29.3422V29.0139C92.8818 28.9339 92.6025 28.8666 92.3253 28.8119C92.0523 28.7572 91.7895 28.7151 91.5372 28.6856C91.2889 28.6519 91.0531 28.6288 90.8297 28.6162C90.6104 28.6035 90.4181 28.5972 90.2526 28.5972C89.9092 28.5972 89.6237 28.6204 89.3962 28.6667C89.1686 28.713 88.9845 28.7761 88.8439 28.8561C88.7032 28.9318 88.6039 29.0223 88.546 29.1275C88.4881 29.2327 88.4591 29.3422 88.4591 29.4558Z" fill="#40E76F"/>
<path d="M76.1717 24.4179H78.0086V25.0492C78.4968 24.7673 78.9622 24.5694 79.4049 24.4558C79.8517 24.3422 80.2882 24.2854 80.7143 24.2854C81.2728 24.2854 81.79 24.3695 82.2657 24.5379C82.7415 24.702 83.1532 24.9482 83.5007 25.2765C83.8482 25.6048 84.1192 26.0152 84.3136 26.5076C84.5122 26.9958 84.6115 27.5619 84.6115 28.2058V31.8674H82.7808V28.5088C82.7808 28.1006 82.7229 27.7365 82.607 27.4167C82.4953 27.0926 82.3319 26.8211 82.1168 26.6023C81.9058 26.3792 81.6472 26.2109 81.3411 26.0972C81.0391 25.9794 80.6998 25.9205 80.3233 25.9205C80.1247 25.9205 79.9199 25.9415 79.7089 25.9836C79.5021 26.0257 79.2973 26.0867 79.0946 26.1667C78.896 26.2424 78.7036 26.3392 78.5174 26.4571C78.3313 26.5707 78.1616 26.7012 78.0086 26.8485V31.8674H76.1717V24.4179Z" fill="#40E76F"/>
<path d="M65.1998 28.1174C65.1998 27.6124 65.3012 27.1305 65.5039 26.6717C65.7066 26.2088 65.9983 25.8005 66.3789 25.447C66.7595 25.0934 67.225 24.8114 67.7752 24.601C68.3296 24.3906 68.9585 24.2854 69.6618 24.2854C70.361 24.2854 70.9898 24.3927 71.5483 24.6073C72.111 24.8178 72.5868 25.1082 72.9757 25.4785C73.3687 25.8489 73.6687 26.2845 73.8755 26.7854C74.0865 27.2862 74.192 27.8228 74.192 28.3952C74.192 28.4668 74.1899 28.5446 74.1858 28.6288C74.1858 28.7088 74.1817 28.7824 74.1734 28.8497H67.2477C67.3263 29.0728 67.4525 29.2769 67.6263 29.4621C67.8042 29.6473 68.0255 29.8072 68.2903 29.9419C68.5551 30.0766 68.8612 30.1818 69.2088 30.2576C69.5563 30.3291 69.941 30.3649 70.363 30.3649C70.785 30.3649 71.205 30.3207 71.6228 30.2323C72.0407 30.1397 72.4399 30.024 72.8205 29.8851L73.4411 31.3119C73.2011 31.4255 72.9571 31.5265 72.7088 31.6149C72.4647 31.6991 72.2082 31.7706 71.9393 31.8295C71.6745 31.8843 71.3953 31.9263 71.1015 31.9558C70.8119 31.9853 70.5058 32 70.1831 32C69.3598 32 68.6378 31.899 68.0173 31.697C67.3967 31.4949 66.8775 31.2193 66.4596 30.8699C66.0417 30.5206 65.7273 30.1103 65.5163 29.6389C65.3053 29.1675 65.1998 28.6604 65.1998 28.1174ZM72.2434 27.3914C72.1772 27.1852 72.0738 26.9937 71.9331 26.8169C71.7966 26.6359 71.6249 26.4802 71.418 26.3497C71.2112 26.2151 70.9712 26.1098 70.6981 26.0341C70.4251 25.9583 70.1251 25.9205 69.7983 25.9205C69.4508 25.9205 69.1343 25.9604 68.8488 26.0404C68.5634 26.1204 68.3131 26.2277 68.0979 26.3624C67.8828 26.4971 67.7028 26.6528 67.558 26.8295C67.4174 27.0063 67.3139 27.1936 67.2477 27.3914H72.2434Z" fill="#40E76F"/>
<path d="M56.2945 29.5821C56.791 29.8851 57.3371 30.1082 57.9329 30.2513C58.5286 30.3944 59.1388 30.4659 59.7636 30.4659C60.1856 30.4659 60.5372 30.4364 60.8185 30.3775C61.0999 30.3186 61.3253 30.2428 61.495 30.1503C61.6646 30.0577 61.7846 29.9524 61.8549 29.8346C61.9252 29.7168 61.9604 29.5968 61.9604 29.4747C61.9604 29.298 61.8839 29.1465 61.7308 29.0202C61.5819 28.8939 61.3336 28.8308 60.9861 28.8308C60.8247 28.8308 60.651 28.8413 60.4648 28.8624C60.2786 28.8834 60.0821 28.9066 59.8753 28.9318C59.6725 28.9529 59.4595 28.9739 59.2361 28.9949C59.0168 29.016 58.7934 29.0265 58.5658 29.0265C58.0694 29.0265 57.6453 28.9718 57.2937 28.8624C56.9461 28.7529 56.6627 28.6035 56.4435 28.4141C56.2242 28.2247 56.0649 28.0017 55.9656 27.7449C55.8663 27.484 55.8167 27.2041 55.8167 26.9053C55.8167 26.5265 55.9036 26.1772 56.0773 25.8573C56.2511 25.5375 56.4993 25.2618 56.822 25.0303C57.1447 24.7946 57.5336 24.6115 57.9887 24.4811C58.4479 24.3506 58.9589 24.2854 59.5215 24.2854C59.8153 24.2854 60.1214 24.3043 60.44 24.3422C60.7627 24.3758 61.0792 24.4221 61.3895 24.4811C61.6998 24.54 61.9976 24.6094 62.2831 24.6894C62.5686 24.7652 62.8209 24.8472 63.0402 24.9356L62.4631 26.3876C61.9956 26.2109 61.5281 26.072 61.0606 25.971C60.5972 25.8657 60.1194 25.8131 59.627 25.8131C59.2836 25.8131 58.992 25.8405 58.752 25.8952C58.5162 25.9457 58.3238 26.0152 58.1749 26.1035C58.0259 26.1877 57.9163 26.2866 57.846 26.4003C57.7798 26.5097 57.7467 26.6254 57.7467 26.7475C57.7467 26.8359 57.7632 26.9158 57.7963 26.9874C57.8336 27.0589 57.8915 27.1221 57.9701 27.1768C58.0528 27.2273 58.1583 27.2673 58.2866 27.2967C58.419 27.322 58.5803 27.3346 58.7706 27.3346C58.9444 27.3346 59.1285 27.3241 59.3229 27.303C59.5174 27.282 59.7201 27.2609 59.9311 27.2399C60.1421 27.2146 60.3593 27.1915 60.5827 27.1705C60.8103 27.1494 61.042 27.1389 61.2778 27.1389C61.7163 27.1389 62.099 27.1915 62.4258 27.2967C62.7568 27.4019 63.0299 27.5492 63.245 27.7386C63.4601 27.928 63.6215 28.1511 63.7291 28.4078C63.8366 28.6646 63.8904 28.9444 63.8904 29.2475C63.8904 29.6389 63.8015 30.0029 63.6236 30.3396C63.4457 30.6763 63.1809 30.9689 62.8292 31.2172C62.4776 31.4613 62.039 31.6528 61.5136 31.7917C60.9923 31.9306 60.3883 32 59.7015 32C59.2795 32 58.872 31.9726 58.479 31.9179C58.0859 31.8674 57.7115 31.798 57.3557 31.7096C56.9999 31.617 56.6648 31.5097 56.3504 31.3876C56.0401 31.2656 55.7567 31.1351 55.5002 30.9962L56.2945 29.5821Z" fill="#40E76F"/>
<path d="M48.5807 23.7551H45V22H54.1287V23.7551H50.548V31.8674H48.5807V23.7551Z" fill="#40E76F"/>
<defs>
<filter id="filter0_dd_62_85" x="0" y="0" width="38" height="38" filterUnits="userSpaceOnUse" color-interpolation-filters="sRGB">
<feFlood flood-opacity="0" result="BackgroundImageFix"/>
<feColorMatrix in="SourceAlpha" type="matrix" values="0 0 0 0 0 0 0 0 0 0 0 0 0 0 0 0 0 0 127 0" result="hardAlpha"/>
<feOffset dy="1"/>
<feGaussianBlur stdDeviation="1"/>
<feColorMatrix type="matrix" values="0 0 0 0 0.0627451 0 0 0 0 0.0941176 0 0 0 0 0.156863 0 0 0 0.06 0"/>
<feBlend mode="normal" in2="BackgroundImageFix" result="effect1_dropShadow_62_85"/>
<feColorMatrix in="SourceAlpha" type="matrix" values="0 0 0 0 0 0 0 0 0 0 0 0 0 0 0 0 0 0 127 0" result="hardAlpha"/>
<feOffset dy="1"/>
<feGaussianBlur stdDeviation="1.5"/>
<feColorMatrix type="matrix" values="0 0 0 0 0.0627451 0 0 0 0 0.0941176 0 0 0 0 0.156863 0 0 0 0.1 0"/>
<feBlend mode="normal" in2="effect1_dropShadow_62_85" result="effect2_dropShadow_62_85"/>
<feBlend mode="normal" in="SourceGraphic" in2="effect2_dropShadow_62_85" result="shape"/>
</filter>
<linearGradient id="paint0_linear_62_85" x1="19" y1="2" x2="19" y2="34" gradientUnits="userSpaceOnUse">
<stop stop-color="white"/>
<stop offset="1" stop-color="#D0D5DD"/>
</linearGradient>
<clipPath id="clip0_62_85">
<rect x="3" y="2" width="32" height="32" rx="8" fill="white"/>
</clipPath>
</defs>
</svg>
